<?xml version="1.0" ?>
<!DOCTYPE svg  PUBLIC '-//W3C//DTD SVG 1.1//EN'  'http://www.w3.org/Graphics/SVG/1.1/DTD/svg11.dtd'>
<!-- Uploaded to: SVG Repo, www.svgrepo.com, Generator: SVG Repo Mixer Tools -->
<svg fill="#000000" width="800px" height="800px" viewBox="0 0 512 512" enable-background="new 0 0 512 512" id="Passion" version="1.1" xml:space="preserve" xmlns="http://www.w3.org/2000/svg" xmlns:xlink="http://www.w3.org/1999/xlink">
<g>
<g>
<path d="M149.421,92.863c-3.416,0-6.188,2.771-6.188,6.188v18.936c0,3.418,2.771,6.188,6.188,6.188    c3.418,0,6.188-2.77,6.188-6.188V99.05C155.609,95.634,152.839,92.863,149.421,92.863z"/>
<path d="M172.539,33.291c0,0-0.002,0-0.002-0.002l-19.473-18.6c-2.041-1.959-5.24-1.959-7.281-0.006l-19.48,18.607    c-1.564,1.496-2.053,3.76-1.248,5.768c0.807,2.008,2.725,3.307,4.889,3.307h13.326l0.055,30.18c0.008,3.416,2.775,6.18,6.188,6.18    c0.004,0,0.008,0,0.012,0c3.416-0.01,6.184-2.785,6.176-6.201l-0.055-30.158H168.9c2.162,0,4.08-1.299,4.887-3.305    C174.593,37.052,174.103,34.787,172.539,33.291z"/>
</g>
<g>
<path d="M362.577,92.863c-3.416,0-6.188,2.771-6.188,6.188v18.936c0,3.418,2.771,6.188,6.188,6.188    c3.418,0,6.188-2.77,6.188-6.188V99.05C368.765,95.634,365.995,92.863,362.577,92.863z"/>
<path d="M385.698,33.291l-0.004-0.002l-19.473-18.6c-2.043-1.963-5.244-1.959-7.281-0.006l-19.479,18.605    c-1.564,1.494-2.057,3.76-1.252,5.768c0.805,2.01,2.725,3.309,4.889,3.309h13.326l0.055,30.18c0.008,3.416,2.775,6.18,6.188,6.18    c0.006,0,0.008,0,0.012,0c3.418-0.01,6.184-2.785,6.176-6.201L368.8,42.365h13.258c2.164,0,4.082-1.299,4.889-3.307    C387.749,37.05,387.263,34.787,385.698,33.291z"/>
</g>
<g>
<path d="M257.079,13.417c-29.416,0-53.264,23.846-53.264,53.262s23.848,53.266,53.264,53.266c29.418,0,53.264-23.85,53.264-53.266    S286.497,13.417,257.079,13.417z M283.812,63.042c0,6.348-2.736,12.395-7.506,16.586l-15.643,13.746    c-1.021,0.896-2.301,1.346-3.582,1.346c-1.283,0-2.561-0.449-3.584-1.346l-15.641-13.746c-4.771-4.189-7.506-10.236-7.506-16.586    v-2.852c0-8.16,6.453-14.916,14.387-15.061c4.938-0.01,9.615,2.385,12.342,6.322c2.674-3.863,7.137-6.324,12.07-6.324    c0.09,0,0.182,0.002,0.271,0.002c7.936,0.145,14.391,6.9,14.391,15.061V63.042z"/>
</g>
<g>
<path d="M384.325,177.892c1.992-1.988,1.992-5.215,0.002-7.207l-18.248-18.248c-1.988-1.988-5.215-1.988-7.203,0l-73.396,73.03    c-2.176,2.178-5.127,3.033-8.205,3.033h-40.209c-3.08,0-6.029-0.855-8.205-3.033l-73.574-73.389    c-1.988-1.988-5.213-1.896-7.201,0.092l-18.254,18.3c-1.988,1.99-1.988,5.235,0,7.223l82.053,82.065    c4.594,4.594,6.762,11.087,5.854,17.521l-29.557,216.002c-0.383,2.879,1.867,5.219,4.77,5.219h29.361    c2.408,0,4.432-1.527,4.771-3.91l15.908-115.322c0.27-1.957,0.922-3.741,1.867-5.36c5.016-8.527,17.953-8.496,22.947,0.031    c0.945,1.619,1.598,3.479,1.893,5.44l15.906,115.201c0.338,2.385,2.361,3.92,4.77,3.92h29.363c2.902,0,5.152-2.336,4.77-5.215    l-28.395-215.951c-0.873-6.406,1.305-12.79,5.881-17.358L384.325,177.892z M269.86,304.884l-12.773,8.969l0.204-0.004l0.209,0.004    v-0.01l-12.988-8.959c-0.377-0.264-0.661-0.732-0.553-1.18l10.383-44.064c0.074-0.324-0.02-0.662-0.217-0.928l-7.136-10.044    c-0.547-0.742-0.031-2.168,0.893-2.168h18.396c0.922,0,1.453,1.426,0.906,2.168l-7.123,9.857    c-0.195,0.266-0.266,0.696-0.189,1.021l10.438,44.111C270.415,304.104,270.237,304.62,269.86,304.884z"/>
<path d="M257.079,138.449c-20.479,0-37.08,16.604-37.08,37.082s16.602,37.082,37.08,37.082s37.082-16.604,37.082-37.082    S277.558,138.449,257.079,138.449z M274.118,181.644c-1.344,8.418-8.514,14.527-17.049,14.527    c-8.449,0-15.607-6.037-17.021-14.355c-0.221-1.305,0.141-2.637,0.992-3.648c0.85-1.014,2.1-1.568,3.422-1.572l25.191-0.096    c0.006,0,0.014,0,0.021,0c1.314,0,2.561,0.539,3.416,1.537C273.95,179.039,274.325,180.339,274.118,181.644z"/>
</g>
</g>
</svg>