<?xml version="1.0" encoding="iso-8859-1"?>
<!-- Uploaded to: SVG Repo, www.svgrepo.com, Generator: SVG Repo Mixer Tools -->
<svg height="800px" width="800px" version="1.1" id="Layer_1" xmlns="http://www.w3.org/2000/svg" xmlns:xlink="http://www.w3.org/1999/xlink" 
	 viewBox="0 0 510.409 510.409" xml:space="preserve">
<g transform="translate(0 1)">
	<path style="fill:#FFE100;" d="M191.205,313.142c-23.04,16.213-25.6,31.573-25.6,59.733l0,0c0,40.107,34.133,68.267,34.133,68.267
		l0,0v34.133c0,14.507,11.093,25.6,25.6,25.6h128.853c14.507,0,24.747-11.093,24.747-25.6v-34.133l0,0
		c24.747-33.28,25.6-40.96,25.6-102.4c0-35.84-11.093-77.653-11.093-77.653l0,0c4.267-11.947,0.853-25.6-9.387-33.28
		c-17.067-13.653-40.96-5.12-46.933,13.653l5.973-17.067c5.12-15.36-2.56-31.573-17.92-36.693l-1.707-0.853
		c-15.36-5.12-31.573,2.56-36.693,17.92l-5.12,15.36c-3.413,10.24-13.653,17.92-23.04,23.893l-34.133,24.747L191.205,313.142"/>
	<g>
		<path style="fill:#FFA800;" d="M165.605,313.142c-23.04,16.213-25.6,31.573-25.6,59.733l0,0c0,40.107,34.133,68.267,34.133,68.267
			l0,0v34.133c0,14.507,11.093,25.6,25.6,25.6h128.853c14.507,0,24.747-11.093,24.747-25.6v-34.133l0,0
			c24.747-33.28,25.6-40.96,25.6-102.4c0-35.84-11.093-77.653-11.093-77.653l0,0c4.267-11.947,0.853-25.6-9.387-33.28
			c-17.067-13.653-40.96-5.12-46.933,13.653l5.973-17.067c5.12-15.36-2.56-31.573-17.92-36.693l-1.707-0.853
			c-15.36-5.12-31.573,2.56-36.693,17.92l-5.12,15.36c-3.413,10.24-13.653,17.92-23.04,23.893l-34.133,24.747L165.605,313.142"/>
		<path style="fill:#FFA800;" d="M299.578,367.756L299.578,367.756c-15.36-5.12-23.893-22.187-18.773-37.547l30.72-88.747
			c5.12-15.36,22.187-23.893,37.547-18.773c15.36,5.12,23.893,22.187,18.773,37.547l-30.72,88.747
			C332.005,365.196,314.938,372.876,299.578,367.756"/>
	</g>
	<g>
		<path style="fill:#FFE100;" d="M298.725,367.756L298.725,367.756c-15.36-5.12-23.893-22.187-18.773-37.547l23.04-67.413
			c5.12-15.36,22.187-23.893,37.547-18.773c15.36,5.12,23.893,22.187,18.773,37.547l-23.04,67.413
			C331.151,364.342,314.085,372.876,298.725,367.756"/>
		<path style="fill:#FFE100;" d="M298.725,186.849l-1.707-0.853c-15.36-5.12-31.573,2.56-36.693,17.92l-11.947,34.133
			c13.653,5.973,23.04,27.307,17.067,41.813c-5.12,12.8-18.773,31.573-34.133,50.347c3.413,4.267,7.68,6.827,12.8,8.533l1.707,0.853
			c15.36,5.12,31.573-2.56,36.693-17.92l34.133-98.133C322.618,209.036,314.085,192.822,298.725,186.849"/>
		<path style="fill:#FFE100;" d="M165.605,313.142c-23.04,16.213-25.6,31.573-25.6,59.733l0,0c0,40.107,34.133,68.267,34.133,68.267
			l0,0v34.133c0,14.507,11.093,25.6,25.6,25.6h103.253c14.507,0,24.747-11.093,24.747-25.6v-34.133l0,0
			c24.747-33.28,25.6-40.96,25.6-102.4c0-35.84-11.093-42.667-11.093-42.667l0,0c4.267-11.947,0.853-26.453-9.387-34.133
			c-17.067-13.653-40.96-39.253-46.933-20.48l5.973-17.067c5.12-15.36-2.56-31.573-17.92-36.693l-1.707-0.853
			c-15.36-5.12-31.573,2.56-36.693,17.92l-5.12,15.36c-3.413,10.24,11.947,17.92,2.56,23.893l-34.133,24.747L165.605,313.142"/>
	</g>
	<path style="fill:#FFFFFF;" d="M174.138,476.982v-34.133l0,0c0,0-34.133-28.16-34.133-68.267l0,0c0-28.16,2.56-43.52,25.6-59.733
		l33.28-44.373l-58.88,44.373c-23.04,16.213-25.6,31.573-25.6,59.733l0,0c0,40.107,34.133,68.267,34.133,68.267l0,0v34.133
		c0,14.507,11.093,25.6,25.6,25.6h25.6C185.231,502.582,174.138,490.636,174.138,476.982"/>
	<g>
		<path style="fill:#FFE100;" d="M192.058,57.142c2.56-13.653,9.387-24.747,21.333-28.16c-6.827-13.653-16.213-22.187-30.72-20.48
			c-16.213,1.707-28.16,9.387-26.453,32.427l22.187,86.187L192.058,57.142z"/>
		<path style="fill:#FFE100;" d="M260.325,204.769L260.325,204.769c1.707-4.267,3.413-7.68,6.827-10.24l-25.6-78.507l-23.04,137.387
			C218.511,253.409,253.498,240.609,260.325,204.769"/>
	</g>
	<path style="fill:#FFFFFF;" d="M217.658,255.116C218.511,255.116,218.511,255.116,217.658,255.116l32.427-191.147
		c2.56-8.533,0.853-17.92-4.267-25.6c-5.12-6.827-13.653-11.947-23.893-11.947c-16.213,0-26.453,13.653-29.867,29.867l-51.2,255.147
		C170.725,289.249,204.005,264.502,217.658,255.116"/>
	<path style="fill:#FFE100;" d="M224.485,245.729C224.485,244.876,225.338,244.876,224.485,245.729l25.6-180.907
		c2.56-8.533,0.853-17.92-4.267-25.6c-5.973-7.68,10.24-7.68,0.853-7.68c-16.213,0-26.453,9.387-29.867,25.6l-51.2,238.933
		C195.471,273.036,210.831,254.262,224.485,245.729"/>
	<path d="M308.965,377.996c-4.267,0-8.533-0.853-12.8-1.707c-9.387-3.413-17.067-10.24-22.187-19.627
		c-4.267-9.387-5.12-19.627-1.707-29.013l30.72-88.747c3.413-9.387,10.24-17.067,19.627-22.187
		c9.387-4.267,19.627-5.12,29.013-1.707c9.387,3.413,17.067,10.24,22.187,19.627c5.12,9.387,5.12,19.627,1.707,29.013l-30.72,88.747
		c-3.413,9.387-10.24,17.067-19.627,22.187C320.911,376.289,314.938,377.996,308.965,377.996z M339.685,229.516
		c-3.413,0-6.827,0.853-9.387,2.56c-5.12,2.56-9.387,6.827-11.093,11.947l-30.72,88.747c-1.707,5.12-1.707,11.093,0.853,16.213
		c2.56,5.12,6.827,9.387,11.947,11.093l0,0c5.12,1.707,11.093,1.707,16.213-0.853c5.12-2.56,9.387-6.827,11.093-11.947l30.72-88.747
		c1.707-5.12,1.707-11.093-0.853-16.213c-2.56-5.12-6.827-9.387-11.947-11.093C343.951,229.516,342.245,229.516,339.685,229.516z"/>
	<path d="M175.845,392.502c-3.413,0-6.827-1.707-7.68-5.12c-1.707-4.267,0-9.387,4.267-11.093
		c17.92-7.68,74.24-69.973,86.187-98.987c2.56-7.68,0.853-17.067-4.267-21.333c-6.827-5.12-17.92-3.413-31.573,5.973
		c-14.507,9.387-50.347,37.547-77.653,58.027c-3.413,2.56-9.387,2.56-11.947-1.707c-2.56-3.413-2.56-9.387,1.707-11.947
		c27.307-20.48,63.147-48.64,78.507-58.027c28.16-18.773,45.227-10.24,51.2-5.12c11.093,9.387,15.36,25.6,9.387,40.96
		c-12.8,30.72-70.827,97.28-94.72,107.52C177.551,392.502,176.698,392.502,175.845,392.502z"/>
	<path d="M256.058,350.689c-4.267,0-8.533-0.853-11.947-1.707l-1.707-0.853c-5.973-2.56-11.947-5.973-16.213-11.947
		c-2.56-3.413-2.56-7.68,0-11.093c16.213-19.627,28.16-37.547,32.427-47.787c4.267-10.24-2.56-26.453-12.8-30.72
		c-4.267-1.707-5.973-5.973-4.267-10.24l11.947-34.133c6.827-19.627,28.16-29.867,47.787-23.04l1.707,0.853
		c9.387,3.413,17.067,10.24,21.333,18.773c4.267,9.387,5.12,19.627,1.707,29.013l-34.133,98.133
		C285.925,340.449,271.418,350.689,256.058,350.689z M244.111,330.209c0.853,0.853,2.56,1.707,3.413,1.707l1.707,0.853
		c11.093,3.413,22.187-1.707,26.453-12.8l34.133-98.133c1.707-5.12,1.707-11.093-0.853-15.36c-2.56-5.12-6.827-8.533-11.947-10.24
		l0,0l-1.707-0.853c-11.093-3.413-22.187,1.707-26.453,12.8l-9.387,27.307c13.653,11.093,21.333,32.427,14.507,48.64
		C269.711,295.222,258.618,311.436,244.111,330.209z"/>
	<path d="M328.591,509.409h-60.587c-5.12,0-8.533-3.413-8.533-8.533c0-5.12,3.413-8.533,8.533-8.533h60.587
		c9.387,0,16.213-7.68,16.213-17.067v-33.28c0-1.707,0-4.267,1.707-5.973c23.04-30.72,23.893-37.547,23.893-97.28
		c0-34.133-11.093-75.093-11.093-75.093c-0.853-1.707,0-3.413,0-5.12c3.413-8.533,0.853-17.92-6.827-23.893
		c-5.973-4.267-12.8-5.973-19.627-4.267c-6.827,1.707-11.947,6.827-14.507,13.653l0,0c-1.707,4.267-5.973,6.827-11.093,5.12
		c-4.267-1.707-6.827-5.973-5.12-11.093l0,0l5.973-17.067c1.707-5.12,1.707-11.093-0.853-15.36c-2.56-5.12-6.827-8.533-11.947-10.24
		l-1.707-0.853c-5.12-1.707-11.093-1.707-15.36,0.853c-5.12,2.56-8.533,6.827-10.24,11.947l-5.12,15.36
		c-4.267,13.653-17.067,22.187-26.453,29.013l-34.133,24.747l-58.027,44.373c-3.413,2.56-9.387,1.707-11.947-1.707
		c-2.56-3.413-1.707-9.387,1.707-11.947l58.88-44.373l34.987-24.747c7.68-5.12,17.067-11.947,19.627-19.627l5.12-15.36
		c3.413-9.387,10.24-17.067,18.773-22.187c9.387-4.267,19.627-5.12,29.013-1.707l1.707,0.853
		c9.387,3.413,17.067,10.24,21.333,18.773c2.56,5.12,3.413,10.24,4.267,16.213c0.853,0,0.853,0,1.707-0.853
		c11.947-3.413,24.747-0.853,34.987,6.827c11.947,9.387,17.067,25.6,12.8,40.107c1.707,10.24,10.24,46.08,10.24,77.653
		c0,59.733-0.853,71.68-25.6,104.96v31.573C361.871,494.902,347.365,509.409,328.591,509.409z"/>
	<path d="M199.738,509.409h-25.6c-18.773,0-34.133-15.36-34.133-34.133v-30.72c-9.387-8.533-34.133-35.84-34.133-71.68v-0.853
		c0-27.307,2.56-46.933,29.013-65.707c4.267-2.56,9.387-1.707,11.947,1.707c2.56,4.267,1.707,9.387-1.707,11.947
		c-20.48,14.507-22.187,26.453-22.187,52.907v0.853c0.853,34.987,30.72,60.587,30.72,60.587c2.56,1.707,3.413,4.267,3.413,6.827
		v34.133c0,9.387,7.68,17.067,17.067,17.067h25.6c5.12,0,8.533,3.413,8.533,8.533C208.271,505.996,204.858,509.409,199.738,509.409z
		"/>
	<path d="M242.405,500.876c0-5.12-3.413-8.533-8.533-8.533c-5.12,0-8.533,3.413-8.533,8.533c0,5.12,3.413,8.533,8.533,8.533
		C238.991,509.409,242.405,505.996,242.405,500.876"/>
	<path d="M140.858,320.822c-1.707,0-3.413,0-4.267-1.707c-3.413-1.707-4.267-5.12-4.267-8.533l51.2-255.147
		c5.12-23.04,18.773-36.693,38.4-36.693c11.947,0,23.04,5.12,30.72,14.507c6.827,8.533,9.387,20.48,5.973,32.427l-30.72,189.44
		c0,2.56-1.707,4.267-4.267,5.973c0,0-0.853,0-0.853,0.853c-14.507,9.387-50.347,36.693-76.8,57.173
		C144.271,320.822,142.565,320.822,140.858,320.822z M221.925,35.809c-15.36,0-19.627,16.213-21.333,23.04l-46.933,232.96
		c21.333-16.213,45.227-34.133,57.173-42.667l30.72-186.88c1.707-6.827,0.853-13.653-2.56-17.92
		C234.725,39.222,228.751,35.809,221.925,35.809z"/>
	<path d="M177.551,135.649c-4.267,0-7.68-2.56-8.533-6.827l-21.333-86.187c0-0.853,0-0.853,0-1.707
		c-1.707-24.747,11.093-39.253,34.133-41.813c11.947-0.853,27.307,2.56,38.4,25.6c0.853,2.56,0.853,5.12,0,6.827
		c-0.853,2.56-2.56,4.267-5.12,5.12c-7.68,2.56-12.8,10.24-15.36,22.187l-13.653,69.973
		C185.231,132.236,181.818,135.649,177.551,135.649C178.405,135.649,178.405,135.649,177.551,135.649z M164.751,39.222l12.8,48.64
		l6.827-33.28l0,0c2.56-12.8,9.387-23.893,17.92-29.867c-5.973-8.533-12.8-9.387-17.067-8.533
		C169.018,17.889,163.898,24.716,164.751,39.222z"/>
	<path d="M218.511,261.942c-1.707,0-4.267-0.853-5.12-1.707c-2.56-1.707-3.413-5.12-3.413-7.68l23.04-138.24
		c0.853-4.267,4.267-6.827,7.68-6.827c4.267,0,7.68,1.707,8.533,5.973l25.6,78.507c0.853,3.413,0,5.973-1.707,8.533
		c-1.707,1.707-3.413,4.267-4.267,6.827c-8.533,39.253-45.227,53.76-46.933,54.613C221.071,261.942,220.218,261.942,218.511,261.942
		z M244.111,151.009l-13.653,86.187c8.533-6.827,18.773-17.92,22.187-34.133v-0.853c0.853-3.413,2.56-6.827,5.12-9.387
		L244.111,151.009z"/>
</g>
</svg>